<?xml version="1.0" encoding="UTF-8"?>
<svg version="1.1" viewBox="-5 5 310 56" xmlns="http://www.w3.org/2000/svg">
  <path d="M 0,0 V 65.27345 H 21.734726 V 44.79666 l 13.643116,20.47679 h 0.670373 L 49.592145,44.79666 V 65.27345 H 71.326874 V 0 H 53.367481 L 35.714083,26.85688 17.959392,0 Z m 266.02423,0 a 34.030992,34.987372 0 0 0 -34.03076,34.98713 34.030992,34.987372 0 0 0 17.29956,30.28632 h 33.4624 A 34.030992,34.987372 0 0 0 300.055,34.98713 34.030992,34.987372 0 0 0 266.02423,0 Z M 109.03378,7e-4 A 34.030992,34.987372 0 0 0 75.003025,34.98785 34.030992,34.987372 0 0 0 92.301179,65.27345 H 125.76569 A 34.030992,34.987372 0 0 0 143.06455,34.98785 34.030992,34.987372 0 0 0 109.03378,7e-4 Z m 37.46705,0 v 65.27275 h 21.73472 V 52.24567 l 7.49792,13.02778 h 25.61769 l -10.1562,-18.37877 c 1.70067,-1.25892 3.23076,-2.79706 4.59133,-4.61549 1.15644,-1.60861 2.21094,-3.63719 3.16333,-6.08503 0.95237,-2.44789 1.42868,-5.42014 1.42868,-8.9171 0,-4.40616 -0.78204,-8.28794 -2.34665,-11.64502 -1.49664,-3.42703 -3.6056,-6.2945 -6.32671,-8.60251 -2.72107,-2.308 -5.95253,-4.05644 -9.69402,-5.24539 C 178.33743,0.59519 174.32396,7e-4 169.97023,7e-4 Z m 70.21474,0.001 c -6.03294,0 -10.88987,4.99341 -10.88987,11.19591 v 15.28056 32.30188 6.49292 h 23.0621 V 58.78012 26.47823 11.19766 c 0,-6.20249 -4.85689,-11.19591 -10.88987,-11.19591 z m -48.48002,18.88212 h 1.12268 c 2.58505,0 4.76128,0.59442 6.52999,1.78342 1.83676,1.18895 2.75536,3.18259 2.75536,5.98015 0,2.79758 -0.9186,4.7905 -2.75536,5.97946 -1.76871,1.18895 -3.94494,1.78341 -6.52999,1.78341 h -1.12268 z m 97.78868,2.09873 a 13.621311,14.004113 0 0 1 13.62131,14.0041 13.621311,14.004113 0 0 1 -13.62131,14.00484 13.621311,14.004113 0 0 1 -13.62131,-14.00484 13.621311,14.004113 0 0 1 13.62131,-14.0041 z m -156.99045,7.1e-4 A 13.621311,14.004113 0 0 1 122.6551,34.98738 13.621311,14.004113 0 0 1 109.03378,48.99149 13.621311,14.004113 0 0 1 95.411768,34.98738 13.621311,14.004113 0 0 1 109.03378,20.98326 Z" stroke="none" fill="#1b88a2" />
</svg>

